<svg width="45" height="45" viewBox="0 0 45 45" fill="none" xmlns="http://www.w3.org/2000/svg">
<g clip-path="url(#clip0)">
<path d="M39.4456 11.3324H35.1157V4.88316C35.1157 2.21088 32.9558 0.0361328 30.2673 0.0361328C28.3724 0.0361328 26.8309 1.57766 26.8309 3.4725C26.8309 4.60737 26.5381 5.72828 25.9849 6.71894C13.5255 2.30106 -0.203154 12.1426 0.00232446 25.3961C0.321001 46.4745 28.4732 52.448 37.4803 33.7377H39.4456C42.5059 33.7377 45 31.2619 45 28.1833V16.8869C45 13.8185 42.5185 11.3324 39.4456 11.3324ZM19.677 8.32084C21.3797 8.32084 23.0462 8.56833 24.6495 9.05812L21.736 14.1565H19.5833V14.0628C19.5833 13.3348 18.993 12.7445 18.265 12.7445H13.9351V12.6507C13.9351 11.9227 13.3448 11.3324 12.6168 11.3324H9.99739C12.8174 9.37337 16.1579 8.32084 19.677 8.32084ZM16.9467 15.3811V29.689H13.9351V15.3811H16.9467ZM2.63874 25.3591C2.63874 21.1272 4.18695 17.1042 7.01031 13.969H11.2985V31.1011H3.63169C2.97245 29.2642 2.63874 27.3367 2.63874 25.3591ZM29.2329 39.4636C23.6318 43.3596 15.7221 43.3596 10.121 39.4636C7.92714 37.9733 6.12793 36.0175 4.83933 33.7376H12.6167C13.3447 33.7376 13.935 33.1474 13.935 32.4193V32.3256H18.2649C18.8829 32.3256 19.4017 31.9004 19.5443 31.3264L20.3285 32.1102C21.3777 33.1596 22.7725 33.7375 24.2556 33.7375H34.5146C33.226 36.0175 31.4268 37.9733 29.2329 39.4636ZM42.3634 28.1832C42.3634 29.7977 41.056 31.101 39.4456 31.101H24.2556C23.4881 31.101 22.7362 30.7894 22.1925 30.2457C21.305 29.3588 20.1682 28.2221 19.5833 27.6372V16.7931H22.5011C22.9742 16.7931 23.411 16.5396 23.6456 16.1289L28.2434 8.08276C29.0442 6.68062 29.4675 5.08644 29.4675 3.47241C29.4675 3.03139 29.8263 2.67264 30.2687 2.67264C31.4955 2.67264 32.479 3.66523 32.479 4.88307V12.6507C32.479 13.3787 33.0693 13.969 33.7973 13.969H39.4455C41.0549 13.969 42.3634 15.2697 42.3634 16.8868V28.1832H42.3634Z" fill="#76A135"/>
</g>
<defs>
<clipPath id="clip0">
<rect width="45" height="45" fill="white"/>
</clipPath>
</defs>
</svg>
