<svg width="45" height="45" viewBox="0 0 45 45" fill="none" xmlns="http://www.w3.org/2000/svg">
<g clip-path="url(#clip0)">
<path d="M43.6094 8.64388C42.7924 7.49267 41.4187 6.854 39.6963 6.7809C39.9349 3.53614 38.8504 1.01441 36.8122 0.236757C35.171 -0.38986 33.2092 0.243184 31.4442 1.91818C30.6441 1.20721 29.7242 0.800713 28.7393 0.800713C25.5861 0.800713 23.1158 4.85847 23.1158 10.0393C23.1158 13.885 24.5056 17.1779 26.5638 18.5645C24.8005 20.3673 24.3891 24.4218 24.3064 29.8428C23.352 28.3615 22.0972 27.2448 20.4543 26.774C21.5718 24.8741 21.9815 22.0077 21.4312 18.9461C20.5137 13.8464 17.3654 10.2964 14.262 10.8475C13.2916 11.0218 12.4585 11.585 11.7965 12.4269C9.76403 11.0909 7.7203 10.8137 6.21561 11.7215C4.35182 12.8454 3.74127 15.515 4.54302 18.6585C2.90578 19.0265 1.63246 19.8828 1.01307 21.1987C-0.424934 24.2563 2.27997 28.4538 7.1708 30.7555C9.10448 31.6657 11.1281 32.1477 12.9678 32.1477C13.2827 32.1477 13.5912 32.1332 13.8933 32.1051C16.1178 31.8954 17.739 30.9378 18.4596 29.4082C18.5865 29.1383 18.67 28.8571 18.7335 28.5719C18.9311 28.4562 19.1199 28.3245 19.2999 28.1743C25.2158 28.9527 25.6906 40.5556 25.6906 44.198C25.6906 44.6415 26.0497 45.0014 26.4939 45.0014C26.9382 45.0014 27.2973 44.6415 27.2973 44.198C27.2973 41.4995 27.078 36.9847 25.8432 33.1936C25.8681 33.1157 25.8922 33.037 25.8922 32.951C25.8922 28.0015 25.8986 21.3964 27.7833 19.6306C27.8211 19.69 27.8508 19.7535 27.8918 19.8113C28.761 21.0348 30.2512 21.6888 32.1319 21.6888C32.3697 21.6888 32.6131 21.6783 32.8621 21.6574C34.9356 21.4831 37.1995 20.589 39.2392 19.1397C41.2789 17.6905 42.8695 15.846 43.7163 13.946C44.6265 11.9047 44.5887 10.0224 43.6094 8.64388ZM14.5464 12.4285C16.6986 12.0429 19.1167 15.1583 19.8502 19.2289C20.3844 22.1981 19.8847 25.0629 18.703 26.5089C18.6998 26.4961 18.6933 26.4824 18.6901 26.4695C18.5463 25.8799 18.2981 25.2838 17.9575 24.6949C17.9398 24.6636 17.9221 24.6331 17.9036 24.6026C17.5534 24.0137 17.1107 23.4353 16.5837 22.8794C16.5604 22.8552 16.5363 22.8312 16.513 22.807C16.2584 22.5427 15.9868 22.2841 15.6944 22.0326C15.6799 22.0206 15.6671 22.0077 15.6526 21.9957C15.3482 21.7354 15.0252 21.4839 14.6838 21.2413C14.646 21.214 14.6059 21.1891 14.5673 21.1626C14.3351 21.0011 14.0957 20.8428 13.8475 20.691C13.8467 20.6902 13.8459 20.6894 13.8443 20.6886C13.8435 20.6886 13.8427 20.6886 13.8419 20.687C13.7856 20.6524 13.7254 20.6195 13.6675 20.5858C13.5824 20.5352 13.498 20.4845 13.4121 20.4347C13.3068 20.3745 13.2032 20.3142 13.0947 20.2556C13.0923 20.254 13.0907 20.2516 13.0875 20.2508C12.8312 20.1126 12.5686 19.9784 12.3002 19.8515C12.3002 19.8515 12.3002 19.8515 12.2994 19.8515C12.1363 19.7752 11.9725 19.7021 11.8086 19.6322C11.7989 19.539 11.7869 19.4458 11.7797 19.3526C11.7732 19.2707 11.766 19.1887 11.7604 19.1076C11.7451 18.8738 11.7363 18.6416 11.7339 18.4119C11.7339 18.3838 11.7315 18.3557 11.7315 18.3275C11.7306 18.06 11.7387 17.7965 11.7548 17.537C11.7572 17.4953 11.762 17.4551 11.7644 17.4141C11.7797 17.198 11.8013 16.9843 11.8279 16.7763C11.8343 16.724 11.8415 16.6726 11.8487 16.6212C11.8817 16.3914 11.921 16.1649 11.9684 15.9472C11.97 15.9384 11.9717 15.9295 11.9733 15.9207C12.1363 15.1784 12.3798 14.51 12.6979 13.9541C12.7035 13.9444 12.7035 13.9332 12.7091 13.9235C13.1855 13.1025 13.8113 12.5602 14.5464 12.4285ZM7.04548 13.0969C8.00227 12.5209 9.47242 12.7948 10.9779 13.8022C10.9779 13.803 10.9779 13.803 10.9779 13.803C10.8204 14.1549 10.6847 14.5325 10.5698 14.9301C10.565 14.947 10.5602 14.9639 10.5553 14.9816C10.4429 15.3768 10.3497 15.7905 10.2814 16.2252V16.226C10.1488 17.0606 10.1022 17.962 10.1456 18.906C10.1472 18.9469 10.144 18.9855 10.1456 19.0265C10.1368 19.024 10.1272 19.0216 10.1183 19.0192C8.72369 18.6015 7.36762 18.4127 6.13768 18.4561C5.45081 15.9625 5.79304 13.8512 7.04548 13.0969ZM13.7431 30.504C11.9564 30.6719 9.86285 30.2445 7.85526 29.2998C3.9156 27.4456 1.44769 24.0482 2.46795 21.8816C2.94997 20.8549 4.14777 20.2612 5.68861 20.1118C6.03566 20.0772 6.39717 20.0668 6.76993 20.078C6.82857 20.0797 6.88722 20.0837 6.94666 20.0861C7.30657 20.1038 7.67531 20.1391 8.05047 20.1969C8.11314 20.2066 8.17741 20.2202 8.24007 20.2307C8.62889 20.2974 9.02093 20.3801 9.41698 20.4894C9.44028 20.4958 9.46438 20.5046 9.48768 20.5111C9.89578 20.6259 10.3055 20.7625 10.712 20.9208C10.7393 20.9312 10.7658 20.9401 10.7931 20.9505C11.0679 21.0589 11.3426 21.1754 11.6174 21.304C11.8504 21.414 12.0777 21.5305 12.2994 21.6502C12.387 21.6976 12.4721 21.7482 12.5581 21.7972C12.681 21.8671 12.8031 21.9362 12.9228 22.0085C13.0345 22.0768 13.143 22.1475 13.2514 22.2182C13.3398 22.2752 13.4273 22.3323 13.5133 22.3909C13.6338 22.4737 13.7527 22.558 13.8684 22.644C13.9335 22.6922 13.9977 22.7404 14.0612 22.7886C14.1857 22.8842 14.3086 22.9806 14.4275 23.0794C14.4741 23.1179 14.5191 23.1573 14.5649 23.1959C14.6926 23.3043 14.8179 23.4144 14.9376 23.5261C14.9634 23.5502 14.9875 23.5743 15.0132 23.5984C15.3602 23.9277 15.6703 24.2675 15.9443 24.6122C16.0246 24.7134 16.1057 24.8146 16.1788 24.9167C16.26 25.0291 16.3363 25.1416 16.4094 25.2549C16.4255 25.2798 16.4439 25.3047 16.4592 25.3296C16.5259 25.4364 16.5845 25.5433 16.644 25.6509C16.6737 25.7056 16.7058 25.761 16.734 25.8156C16.783 25.9112 16.8255 26.006 16.8673 26.1016C16.8962 26.1675 16.9252 26.2326 16.9509 26.2976C16.9854 26.3868 17.0159 26.4752 17.0449 26.5635C17.0673 26.6342 17.0882 26.7041 17.1067 26.7732C17.1292 26.8568 17.1493 26.9403 17.1654 27.0231C17.1798 27.0962 17.1903 27.1685 17.1999 27.24C17.2103 27.3179 17.22 27.3966 17.2248 27.4737C17.2296 27.5509 17.228 27.6256 17.2264 27.7011C17.2256 27.7702 17.2256 27.8401 17.22 27.9084C17.1935 28.1936 17.1252 28.4675 17.0047 28.7238C16.5371 29.7175 15.3787 30.3506 13.7431 30.504ZM36.2394 1.73823C37.6076 2.26121 38.3185 4.28407 38.0815 6.86525C38.0671 6.86766 38.0518 6.87168 38.0366 6.87409C37.1135 7.00985 36.1639 7.28139 35.2176 7.67423C35.2015 7.68066 35.1854 7.68789 35.1694 7.69512C34.8858 7.81401 34.603 7.94416 34.3218 8.08474C34.2937 8.0984 34.2656 8.10884 34.2383 8.12331C34.2335 8.08635 34.2238 8.05261 34.219 8.01566C34.0302 6.58568 33.6478 5.29469 33.1176 4.21096C33.1104 4.1965 33.1039 4.18204 33.0967 4.16838C32.9119 3.79643 32.7119 3.44858 32.4942 3.12964L32.4934 3.12884C33.8085 1.8507 35.1774 1.33334 36.2394 1.73823ZM24.7225 10.0393C24.7225 5.90283 26.5622 2.40743 28.7393 2.40743C29.4856 2.40743 30.1982 2.82999 30.8104 3.55381C30.8168 3.56265 30.8192 3.5731 30.8264 3.58193C31.2377 4.07118 31.5944 4.68494 31.8853 5.38466C31.8917 5.39912 31.8965 5.41439 31.9029 5.42885C31.9849 5.62888 32.0604 5.83695 32.1319 6.04984C32.1496 6.10367 32.1672 6.15749 32.1841 6.21212C32.246 6.40653 32.3022 6.60657 32.3544 6.80982C32.3665 6.85561 32.3793 6.89979 32.3906 6.94639C32.4508 7.19623 32.5054 7.4509 32.5512 7.71118C32.5577 7.74573 32.5617 7.78268 32.5673 7.81723C32.6043 8.03574 32.6348 8.25827 32.6605 8.48241C32.6701 8.56756 32.6782 8.65352 32.6862 8.74028C32.695 8.83026 32.6991 8.92184 32.7063 9.01262C32.5577 9.10983 32.4098 9.21105 32.262 9.31549C32.1383 9.40305 32.0218 9.49704 31.9021 9.58702C31.7872 9.67378 31.6683 9.75894 31.5567 9.84731V9.84811C31.4683 9.91881 31.3856 9.99191 31.2996 10.0634C31.212 10.1365 31.1261 10.2096 31.0409 10.2843C30.783 10.5093 30.5332 10.739 30.2962 10.976C30.2424 11.0298 30.187 11.0829 30.1339 11.1375C29.8953 11.3833 29.672 11.6356 29.4575 11.891C29.3675 11.9979 29.2824 12.1055 29.1972 12.214C29.0775 12.3666 28.9634 12.5209 28.8526 12.6759C28.8381 12.696 28.8229 12.7161 28.8084 12.7362C28.7907 12.7611 28.7739 12.7868 28.7562 12.8117C28.6911 12.9057 28.6212 12.9989 28.5594 13.0937C28.4421 13.2744 28.336 13.4576 28.2324 13.6408C28.226 13.652 28.2187 13.6632 28.2123 13.6745C28.1737 13.7436 28.1344 13.8119 28.0974 13.881C28.034 13.9991 27.9777 14.1163 27.9199 14.2344C27.9054 14.265 27.8869 14.2955 27.8725 14.326C27.8701 14.33 27.8717 14.3349 27.8701 14.3397C27.8436 14.3967 27.8114 14.4529 27.7857 14.5092C27.7464 14.5984 27.7182 14.6851 27.6821 14.7735C27.6291 14.9036 27.5744 15.0338 27.5295 15.1639C27.429 15.4491 27.3431 15.7319 27.2812 16.0082C27.2732 16.0436 27.2708 16.0781 27.2635 16.1135C27.2073 16.3834 27.1736 16.6477 27.1543 16.9072C27.1519 16.9377 27.143 16.9699 27.1414 16.9996C25.7203 15.7865 24.7225 13.0559 24.7225 10.0393ZM42.2494 13.2913C41.5175 14.9326 40.1189 16.5441 38.3097 17.8287C36.5013 19.114 34.5187 19.9045 32.728 20.0548C31.0891 20.1929 29.8383 19.7752 29.202 18.8794C29.0462 18.6601 28.9313 18.4151 28.8534 18.1492C28.8317 18.0737 28.8188 17.9949 28.8036 17.917C28.7915 17.8568 28.7763 17.7989 28.7674 17.7371C28.7562 17.6543 28.7538 17.5684 28.7489 17.4832C28.7457 17.4205 28.7393 17.3603 28.7393 17.296C28.7393 17.2093 28.7473 17.1193 28.7538 17.0301C28.7586 16.9642 28.761 16.8992 28.769 16.8317C28.7803 16.7393 28.798 16.6445 28.8148 16.5505C28.8269 16.4838 28.8381 16.4172 28.8534 16.3497C28.8759 16.2493 28.9048 16.1464 28.9337 16.0444C28.9514 15.9817 28.9691 15.9199 28.99 15.8564C29.0269 15.7423 29.0687 15.6267 29.1137 15.511C29.1322 15.4636 29.1506 15.4162 29.1707 15.368C29.2229 15.2426 29.2784 15.1165 29.3394 14.9904C29.3932 14.8763 29.4567 14.7606 29.5178 14.6458C29.8238 14.0778 30.2095 13.505 30.6722 12.9483C30.6818 12.9362 30.6915 12.9242 30.7011 12.9121C30.824 12.7659 30.9526 12.6205 31.0843 12.4775C31.1084 12.4518 31.1325 12.4253 31.1566 12.3988C31.2803 12.267 31.4081 12.1369 31.539 12.0083C31.5832 11.9658 31.6274 11.9224 31.6724 11.8798C31.7897 11.7681 31.9094 11.6565 32.0323 11.5472C32.1198 11.4709 32.209 11.3946 32.299 11.3199C32.393 11.2403 32.4862 11.16 32.5834 11.0829C32.7151 10.9776 32.8533 10.8764 32.9915 10.7744C33.0582 10.7254 33.1216 10.6732 33.1899 10.625C33.4446 10.4442 33.7016 10.2763 33.9595 10.1172C34.0013 10.0915 34.0439 10.0682 34.0856 10.0433C35.0513 9.4625 36.0555 9.01664 37.0324 8.73466C37.0508 8.72904 37.0685 8.72422 37.087 8.7194C37.271 8.66718 37.4541 8.62139 37.6357 8.58122C37.6702 8.57318 37.7048 8.56676 37.7385 8.55953C37.9088 8.52338 38.0783 8.49124 38.2454 8.46634C38.2872 8.45991 38.3282 8.4559 38.3691 8.45107C38.5338 8.42858 38.6985 8.4085 38.8592 8.39725C38.86 8.39725 38.8616 8.39645 38.8624 8.39645C39.0343 8.3844 39.2038 8.37476 39.3669 8.37476C40.7125 8.37476 41.74 8.7933 42.2968 9.57658C42.9362 10.4707 42.9185 11.7906 42.2494 13.2913Z" fill="#76A135"/>
<path d="M34.5589 33.3506C37.5313 31.2771 39.4931 27.7688 39.5004 23.7938C39.5012 23.4669 39.3035 23.1728 39.0015 23.0483C38.8464 22.9857 38.6801 22.9744 38.5219 23.0082C35.5872 23.0451 32.8349 24.2405 30.7574 26.3855C28.6719 28.5377 27.5159 31.3944 27.4862 34.4383C27.4854 34.4431 27.483 34.448 27.483 34.4528C27.4822 34.4592 27.4846 34.4656 27.4846 34.4721C27.4846 34.4945 27.4814 34.5154 27.4814 34.5379C27.4814 34.5813 27.4942 34.6215 27.5006 34.6633C27.5038 34.6809 27.5047 34.6994 27.5087 34.7171C27.5336 34.8199 27.5745 34.9155 27.6372 34.9991C29.2238 38.729 32.9225 40.98 36.8686 40.98C38.1708 40.98 39.4996 40.735 40.7881 40.2177C41.0918 40.0955 41.291 39.8015 41.2918 39.4746C41.2927 39.3107 41.242 39.1548 41.1553 39.0239C39.9631 36.1856 37.5096 34.1298 34.5589 33.3506ZM31.9111 27.5029C33.525 25.8368 35.6113 24.8406 37.8559 24.6478C37.5313 28.4991 35.0819 31.723 31.7383 33.0557C31.7327 33.0581 31.7263 33.0565 31.7207 33.059C30.9326 33.3707 30.1228 33.5675 29.3042 33.6574C29.2576 33.6623 29.2126 33.6719 29.166 33.6759C29.1515 33.6775 29.1379 33.6767 29.1234 33.6783C29.3194 31.3414 30.2915 29.1747 31.9111 27.5029ZM29.55 35.2529C29.9822 35.2039 30.4056 35.122 30.8217 35.0232C30.8723 35.0111 30.9221 34.995 30.9727 34.9822C31.3479 34.8874 31.715 34.7725 32.0741 34.6392C32.1023 34.6287 32.1312 34.6231 32.1601 34.6126C35.2538 34.6978 37.9925 36.3873 39.3734 39.0094C35.5382 40.1405 31.4644 38.5627 29.55 35.2529Z" fill="#76A135"/>
</g>
<defs>
<clipPath id="clip0">
<rect width="45" height="45" fill="white"/>
</clipPath>
</defs>
</svg>
