<svg width="45" height="45" viewBox="0 0 45 45" fill="none" xmlns="http://www.w3.org/2000/svg">
<path d="M31.9568 27.6409C31.5538 27.2799 30.9346 27.3151 30.5755 27.7172C28.5349 29.9975 25.5923 31.3044 22.5 31.3044C19.4087 31.3044 16.4651 29.9975 14.4244 27.7172C14.0635 27.3151 13.4462 27.2799 13.0431 27.6409C12.6401 28.0009 12.6068 28.6191 12.9668 29.0222C15.3783 31.7163 18.853 33.261 22.5 33.261C26.1479 33.261 29.6227 31.7153 32.0331 29.0222C32.3931 28.6191 32.3589 28.0009 31.9568 27.6409Z" fill="#76A135"/>
<path d="M22.5 0C10.0937 0 0 10.0937 0 22.5C0 34.9063 10.0937 45 22.5 45C34.9063 45 45 34.9063 45 22.5C45 10.0937 34.9063 0 22.5 0ZM22.5 43.0435C11.1717 43.0435 1.95652 33.8283 1.95652 22.5C1.95652 11.1717 11.1717 1.95652 22.5 1.95652C33.8283 1.95652 43.0435 11.1717 43.0435 22.5C43.0435 33.8283 33.8283 43.0435 22.5 43.0435Z" fill="#76A135"/>
<path d="M30.326 15.6526C27.629 15.6526 25.4348 17.8467 25.4348 20.5435C25.4348 21.0835 25.873 21.5217 26.413 21.5217C26.953 21.5217 27.3913 21.0835 27.3913 20.5435C27.3913 18.9256 28.708 17.609 30.326 17.609C31.9441 17.609 33.2608 18.9256 33.2608 20.5435C33.2608 21.0835 33.6991 21.5217 34.2391 21.5217C34.7791 21.5217 35.2173 21.0835 35.2173 20.5435C35.2173 17.8467 33.0231 15.6526 30.326 15.6526Z" fill="#76A135"/>
<path d="M17.6087 20.5435C17.6087 21.0835 18.0469 21.5217 18.5869 21.5217C19.1269 21.5217 19.5652 21.0835 19.5652 20.5435C19.5652 17.8467 17.3709 15.6526 14.6739 15.6526C11.9768 15.6526 9.78259 17.8467 9.78259 20.5435C9.78259 21.0835 10.2209 21.5217 10.7609 21.5217C11.3009 21.5217 11.7391 21.0835 11.7391 20.5435C11.7391 18.9256 13.0558 17.609 14.6739 17.609C16.2919 17.609 17.6087 18.9256 17.6087 20.5435Z" fill="#76A135"/>
</svg>
