<svg width="60" height="45" viewBox="0 0 60 45" fill="none" xmlns="http://www.w3.org/2000/svg">
<path d="M48.5742 14.3872H44.7967L45.9349 0.979806C45.937 0.955518 45.9373 0.931591 45.9374 0.907664C45.9374 0.90562 45.9377 0.903696 45.9377 0.901652C45.9377 0.901291 45.9377 0.901051 45.9377 0.900691C45.9377 0.535774 45.7231 0.214141 45.4078 0.0743065C45.4051 0.0731041 45.4025 0.0716616 45.3998 0.0704592C45.3802 0.0620427 45.3599 0.0548281 45.3396 0.0478544C45.3319 0.0453294 45.3247 0.0422031 45.3171 0.0397984C45.3004 0.0346282 45.2833 0.0305402 45.2663 0.026332C45.2544 0.0234463 45.2429 0.0199597 45.2308 0.0175549C45.2159 0.014549 45.2005 0.0126256 45.1852 0.0103411C45.1709 0.00817681 45.1569 0.00565148 45.1424 0.00432888C45.14 0.00408841 45.1378 0.00360707 45.1353 0.0033666C45.1198 0.00192377 45.1046 0.00216431 45.0892 0.00156313C45.0789 0.00120242 45.0688 0 45.0585 0H45.0475C45.0466 0 45.0456 0 45.0448 0H27.0716C26.5864 0 26.1927 0.403994 26.1927 0.901772C26.1927 1.39835 26.5864 1.80354 27.0716 1.80354H44.1005L42.3514 22.409C42.3511 22.4106 42.3511 22.4122 42.3509 22.4137L41.9096 27.6129H11.3693L11.8802 22.2025H17.6951C18.1807 22.2025 18.5741 21.7987 18.5741 21.3007C18.5741 20.8027 18.1807 20.3989 17.6951 20.3989H12.0506L13.1292 8.97708H22.3841C22.8696 8.97708 23.263 8.57333 23.263 8.07531C23.263 7.57729 22.8696 7.17354 22.3841 7.17354H13.2995L13.8067 1.80354H23.556C24.0399 1.80354 24.4349 1.39835 24.4349 0.901772C24.4349 0.403994 24.0399 0 23.556 0H13.009C13.0086 0 13.0082 0.00012017 13.0077 0.00012017C12.5949 -6.60535e-08 12.2368 0.298187 12.1502 0.711559C12.1496 0.714565 12.1485 0.717451 12.1479 0.720456C12.1435 0.742941 12.1406 0.765906 12.1376 0.788991C12.1368 0.796326 12.1353 0.803299 12.1346 0.810634C12.1345 0.812077 12.1341 0.813399 12.134 0.814842L11.5335 7.17354H0.87891C0.3934 7.17354 0 7.57729 0 8.07531C0 8.57333 0.3934 8.97708 0.87891 8.97708H11.3631L10.2845 20.3989H7.1487C6.66319 20.3989 6.26979 20.8027 6.26979 21.3007C6.26979 21.7987 6.66319 22.2025 7.1487 22.2025H10.1143L9.52691 28.4212C9.5268 28.4222 9.5268 28.4231 9.52668 28.424L8.61859 38.0404C8.61847 38.0414 8.61835 38.0426 8.61824 38.0436L8.61789 38.0471C8.61671 38.0596 8.61683 38.0719 8.61613 38.0844C8.61531 38.101 8.61367 38.1172 8.61367 38.134C8.61367 38.1347 8.61378 38.1355 8.61378 38.1363C8.61378 38.1595 8.61542 38.1824 8.61706 38.2052C8.61777 38.2125 8.61753 38.22 8.61835 38.2272C8.6207 38.2505 8.62457 38.2735 8.62867 38.2963C8.62984 38.3031 8.63042 38.3099 8.63171 38.3165C8.63511 38.3339 8.63992 38.3506 8.64437 38.3675C8.64742 38.3794 8.64988 38.3916 8.65339 38.4032C8.65445 38.4065 8.65585 38.4096 8.65679 38.413C8.69933 38.5472 8.77152 38.6676 8.86574 38.766C8.8675 38.7678 8.8689 38.7698 8.87066 38.7715C8.88003 38.7811 8.89023 38.7898 8.90007 38.7989C8.96066 38.8559 9.0291 38.9043 9.10398 38.9421C9.11957 38.9501 9.13492 38.9584 9.15086 38.9652C9.15566 38.9674 9.16082 38.9688 9.16574 38.9707C9.18777 38.9798 9.20992 38.9884 9.23277 38.9958C9.23488 38.9964 9.23687 38.9967 9.23898 38.9974C9.265 39.0054 9.29125 39.0124 9.31808 39.018C9.3216 39.0187 9.32523 39.019 9.32863 39.0197C9.35418 39.0246 9.37984 39.0288 9.40597 39.0315C9.40656 39.0315 9.40703 39.0316 9.40762 39.0317C9.43644 39.0346 9.46504 39.036 9.4934 39.036C9.49375 39.036 9.49422 39.0359 9.49469 39.0359H13.4074C13.8394 42.3969 16.6478 45 20.0398 45C23.4316 45 26.24 42.3969 26.6721 39.0359H40.7697C41.2019 42.3969 44.0102 45 47.4021 45C50.7938 45 53.6025 42.3969 54.0347 39.0359H57.9483C57.9489 39.0359 57.9496 39.036 57.9502 39.036C57.9795 39.036 58.0083 39.0342 58.0369 39.0314C58.042 39.0309 58.0469 39.0298 58.0521 39.0292C58.075 39.0264 58.0977 39.0232 58.12 39.0186C58.1296 39.0167 58.1388 39.014 58.1483 39.0117C58.1655 39.0077 58.1829 39.0033 58.1998 38.9982C58.2112 38.9947 58.2224 38.9906 58.2336 38.9866C58.248 38.9816 58.2625 38.9763 58.2766 38.9704C58.2888 38.9655 58.3004 38.9601 58.3123 38.9546C58.3252 38.9485 58.338 38.9423 58.3506 38.9356C58.3625 38.9294 58.374 38.9229 58.3855 38.9162C58.3976 38.909 58.4095 38.9015 58.4214 38.8938C58.4324 38.8866 58.4434 38.8793 58.4539 38.8716C58.4659 38.863 58.4773 38.854 58.4889 38.8449C58.4985 38.837 58.5082 38.8294 58.5176 38.8212C58.5296 38.8107 58.541 38.7998 58.5525 38.7886C58.5605 38.7808 58.5688 38.7731 58.5765 38.7649C58.5887 38.7522 58.6003 38.7387 58.6119 38.7251C58.6181 38.7178 58.6246 38.7107 58.6305 38.7032C58.6434 38.6869 58.6552 38.67 58.6669 38.6531C58.6709 38.6472 58.6753 38.6417 58.6792 38.6357C58.6935 38.6136 58.707 38.591 58.7194 38.5677C58.7203 38.5663 58.7212 38.565 58.7218 38.5634C58.7351 38.5384 58.7473 38.5128 58.7582 38.4863C58.7612 38.4787 58.7635 38.4709 58.7665 38.4634C58.7736 38.4447 58.7807 38.4261 58.7866 38.4067C58.7905 38.3942 58.7933 38.3814 58.7967 38.3687C58.8006 38.3537 58.8047 38.3388 58.808 38.3235C58.8109 38.3099 58.8128 38.296 58.815 38.2822C58.817 38.27 58.8196 38.2581 58.8211 38.2457C58.8584 37.9394 59.5466 32.2739 59.854 28.6106C59.8543 28.6071 59.8545 28.6035 59.8548 28.6C59.9433 27.544 60 26.6547 60 26.1103C60 19.6462 54.8744 14.3872 48.5742 14.3872ZM44.6436 16.191H48.2393L47.78 21.6012H44.1843L44.6436 16.191ZM20.0401 43.1963C17.3193 43.1963 15.1059 40.9253 15.1059 38.1339C15.1059 35.3425 17.3194 33.0715 20.0401 33.0715C22.7607 33.0715 24.9742 35.3425 24.9742 38.1339C24.9742 40.9253 22.7607 43.1963 20.0401 43.1963ZM47.4021 43.1963C44.6814 43.1963 42.4681 40.9253 42.4681 38.1339C42.4681 35.3425 44.6815 33.0715 47.4021 33.0715C50.1228 33.0715 52.3363 35.3425 52.3363 38.1339C52.3363 40.9253 50.1228 43.1963 47.4021 43.1963ZM57.1717 37.2318H54.0349C53.6029 33.8706 50.7944 31.2673 47.4023 31.2673C44.0104 31.2673 41.2019 33.8707 40.7699 37.2318H26.6724C26.2405 33.8706 23.4321 31.2673 20.0401 31.2673C16.6481 31.2673 13.8394 33.8707 13.4075 37.2318H10.4609L11.1991 29.4159H42.715V29.4164C42.7155 29.4164 42.7158 29.4164 42.7163 29.4164C42.7457 29.4164 42.7749 29.4147 42.8037 29.4117C42.8091 29.4112 42.8144 29.41 42.8198 29.4093C42.8427 29.4066 42.8656 29.4032 42.8881 29.3986C42.8978 29.3966 42.9073 29.3938 42.9169 29.3914C42.9345 29.3871 42.9521 29.3829 42.9692 29.3776C42.9809 29.374 42.992 29.3696 43.0034 29.3656C43.0182 29.3603 43.0329 29.3551 43.0472 29.3491C43.0595 29.3439 43.0714 29.3381 43.0833 29.3324C43.0963 29.3262 43.1093 29.3201 43.1219 29.3134C43.1338 29.3069 43.1456 29.2999 43.1574 29.2929C43.1695 29.2857 43.1814 29.2784 43.1931 29.2707C43.2045 29.2631 43.2153 29.2552 43.2262 29.2472C43.2378 29.2388 43.249 29.2302 43.2603 29.2212C43.2704 29.2129 43.2803 29.2043 43.2902 29.1955C43.3013 29.1857 43.3122 29.1756 43.3228 29.1651C43.3317 29.1563 43.3406 29.1473 43.3492 29.1381C43.3598 29.1268 43.37 29.1151 43.3801 29.1032C43.3879 29.0938 43.3956 29.0844 43.4031 29.0748C43.4129 29.0622 43.4221 29.0492 43.4313 29.0361C43.4382 29.0262 43.4449 29.0164 43.4514 29.0063C43.46 28.9927 43.4682 28.9788 43.476 28.9646C43.482 28.954 43.4881 28.9434 43.4935 28.9326C43.5009 28.9184 43.5072 28.904 43.5139 28.8894C43.519 28.8778 43.5243 28.8663 43.529 28.8543C43.5347 28.8401 43.5395 28.8256 43.5446 28.811C43.5489 28.7982 43.5535 28.7853 43.5574 28.7721C43.5612 28.7581 43.5644 28.7438 43.5679 28.7296C43.5713 28.7153 43.5751 28.7011 43.5778 28.6866C43.5804 28.6724 43.5821 28.658 43.5842 28.6435C43.5863 28.6286 43.5888 28.614 43.5902 28.5988C43.5904 28.5966 43.5909 28.5946 43.591 28.5924L44.0315 23.4042H48.5739C51.2668 23.4042 52.4813 24.8358 53.767 26.3515C54.8279 27.602 56.0123 28.9974 58.0256 29.3378C57.7699 32.1116 57.3566 35.6726 57.1717 37.2318ZM58.1759 27.5306C56.8698 27.2575 56.0662 26.3154 55.0928 25.1679C53.8753 23.7328 52.389 21.9816 49.5398 21.6553L49.9945 16.299C54.6544 17.0061 58.2422 21.136 58.2422 26.1105C58.2422 26.4485 58.2176 26.9395 58.1759 27.5306Z" fill="#76A135"/>
<path d="M20.0398 34.8276C18.2629 34.8276 16.8171 36.3109 16.8171 38.1341C16.8171 39.9573 18.2629 41.4405 20.0398 41.4405C21.8167 41.4405 23.2625 39.9573 23.2625 38.1341C23.2625 36.311 21.8167 34.8276 20.0398 34.8276ZM20.0398 39.637C19.232 39.637 18.575 38.9629 18.575 38.1341C18.575 37.3053 19.232 36.6312 20.0398 36.6312C20.8476 36.6312 21.5046 37.3053 21.5046 38.1341C21.5046 38.9629 20.8475 39.637 20.0398 39.637Z" fill="#76A135"/>
<path d="M47.4023 34.8276C45.6254 34.8276 44.1797 36.3109 44.1797 38.1341C44.1797 39.9573 45.6254 41.4405 47.4023 41.4405C49.1793 41.4405 50.625 39.9573 50.625 38.1341C50.625 36.311 49.1793 34.8276 47.4023 34.8276ZM47.4023 39.637C46.5946 39.637 45.9375 38.9629 45.9375 38.1341C45.9375 37.3053 46.5946 36.6312 47.4023 36.6312C48.2101 36.6312 48.8672 37.3053 48.8672 38.1341C48.8672 38.9629 48.2101 39.637 47.4023 39.637Z" fill="#76A135"/>
<path d="M8.32022 14.3877H4.02344C3.53793 14.3877 3.14453 14.7916 3.14453 15.2899C3.14453 15.7881 3.53793 16.192 4.02344 16.192H8.32022C8.80573 16.192 9.19912 15.7881 9.19912 15.2899C9.19912 14.7916 8.80573 14.3877 8.32022 14.3877Z" fill="#76A135"/>
</svg>
