<svg width="33" height="33" viewBox="0 0 33 33" fill="none" xmlns="http://www.w3.org/2000/svg">
<g clip-path="url(#clip0)">
<path d="M32.4135 6.24098C31.986 5.73554 31.3872 5.42681 30.7274 5.3717L7.48846 3.43128C6.82859 3.37617 6.18702 3.58133 5.68152 4.00884C5.17808 4.43468 4.8698 5.03042 4.81295 5.687L4.34541 10.0734H2.47854C1.11188 10.0734 0 11.1853 0 12.5519V27.0991C0 28.4657 1.11188 29.5776 2.47854 29.5776H25.7984C27.1651 29.5776 28.277 28.4657 28.277 27.0991V24.7393L29.1045 24.8084C29.1743 24.8142 29.2437 24.8171 29.3126 24.8171C30.5867 24.8171 31.6728 23.8368 31.7807 22.5446L32.9912 8.04798C33.0463 7.38817 32.8411 6.74648 32.4135 6.24098ZM2.47854 11.3625H25.7984C26.4543 11.3625 26.988 11.8961 26.988 12.5519V13.8775H1.28906V12.5519C1.28906 11.8961 1.82266 11.3625 2.47854 11.3625ZM1.28906 15.1665H26.988V17.8406H1.28906V15.1665ZM25.7984 28.2886H2.47854C1.82266 28.2886 1.28906 27.755 1.28906 27.0991V19.1297H26.988V27.0991C26.988 27.755 26.4543 28.2886 25.7984 28.2886ZM31.7066 7.94066L30.4961 22.4373C30.4415 23.091 29.8653 23.5785 29.2118 23.5238L28.277 23.4457V12.5519C28.277 11.1853 27.1651 10.0734 25.7984 10.0734H5.64182L6.0955 5.81694C6.09602 5.81204 6.09647 5.80721 6.09686 5.80225C6.15145 5.14863 6.7274 4.66111 7.38121 4.71589L30.6202 6.65631C30.9369 6.68274 31.2243 6.83091 31.4294 7.07351C31.6346 7.31611 31.733 7.62401 31.7066 7.94066Z" fill="white"/>
<path d="M24.2907 21.0459H18.0876C17.7317 21.0459 17.4431 21.3345 17.4431 21.6904V25.7374C17.4431 26.0933 17.7317 26.3819 18.0876 26.3819H24.2907C24.6467 26.3819 24.9353 26.0933 24.9353 25.7374V21.6904C24.9353 21.3345 24.6467 21.0459 24.2907 21.0459ZM23.6462 25.0928H18.7322V22.335H23.6462V25.0928Z" fill="white"/>
</g>
<defs>
<clipPath id="clip0">
<rect width="33" height="33" fill="white"/>
</clipPath>
</defs>
</svg>
