<svg width="14" height="14" viewBox="0 0 14 14" fill="none" xmlns="http://www.w3.org/2000/svg">
<g clip-path="url(#clip0)">
<path d="M3.1027 8.46037L2.61538 10.2796L0.834231 10.3173C0.30193 9.32998 0 8.20039 0 7C0 5.83923 0.282297 4.7446 0.782688 3.78076H0.78307L2.36879 4.07148L3.06343 5.64768C2.91804 6.07154 2.8388 6.52654 2.8388 7C2.83886 7.51384 2.93193 8.00616 3.1027 8.46037Z" fill="#FBBB00"/>
<path d="M13.8777 5.69232C13.9581 6.11577 14 6.55308 14 7.00001C14 7.50117 13.9473 7.99002 13.847 8.46156C13.5062 10.0662 12.6158 11.4673 11.3824 12.4589L11.382 12.4585L9.38469 12.3566L9.10201 10.5919C9.92046 10.1119 10.5601 9.36079 10.897 8.46156H7.15393V5.69232H10.9516H13.8777Z" fill="#518EF8"/>
<path d="M11.3819 12.4585L11.3823 12.4588C10.1827 13.4231 8.65883 14 7 14C4.33423 14 2.01654 12.51 0.834229 10.3173L3.10269 8.46039C3.69384 10.0381 5.21576 11.1612 7 11.1612C7.76691 11.1612 8.48539 10.9538 9.10191 10.5919L11.3819 12.4585Z" fill="#28B446"/>
<path d="M11.468 1.61153L9.20028 3.46806C8.56222 3.06923 7.80797 2.83883 6.99991 2.83883C5.17528 2.83883 3.62489 4.01343 3.06336 5.64769L0.782976 3.78077H0.782593C1.9476 1.53461 4.29451 0 6.99991 0C8.69836 0 10.2557 0.605008 11.468 1.61153Z" fill="#F14336"/>
</g>
<defs>
<clipPath id="clip0">
<rect width="14" height="14" fill="white"/>
</clipPath>
</defs>
</svg>
