<svg width="76" height="76" viewBox="0 0 76 76" fill="none" xmlns="http://www.w3.org/2000/svg">
<path d="M63.3333 13.4191V6.33333C63.3289 2.83733 60.496 0.00443333 57 0H6.33333C2.83733 0.00443333 0.00443333 2.83733 0 6.33333V34.2C0.00981669 37.4347 2.46177 40.14 5.67973 40.4681L10.4411 52.8279C11.6989 56.0915 15.364 57.7173 18.6279 56.461L48.3613 45.0072C46.3068 50.3738 46.8914 56.3939 49.939 61.2652L50.6667 62.4289V74.7333C50.6667 75.4332 51.2335 76 51.9333 76H74.7333C75.4332 76 76 75.4332 76 74.7333V32.9222C75.988 28.5418 74.2441 24.3447 71.1471 21.2467L63.3333 13.4191ZM63.3333 20.9944L67.1777 30.9738C67.931 32.9327 66.9547 35.1307 64.9962 35.8847L62.7988 36.7333C63.1497 35.9347 63.3314 35.0715 63.3333 34.2V20.9944ZM2.53333 34.2V6.33333C2.53333 4.2351 4.2351 2.53333 6.33333 2.53333H57C59.0982 2.53333 60.8 4.2351 60.8 6.33333V14.3843H60.7889L60.8 14.4131V34.2C60.7902 34.421 60.7614 34.6402 60.7139 34.8561L49.1112 23.2522C46.5031 20.7043 42.3453 20.6847 39.7138 23.206C37.0817 25.7289 36.9236 29.8835 39.3579 32.5974L44.3042 38H6.33333C4.2351 38 2.53333 36.2982 2.53333 34.2ZM18.7606 40.5333L9.75333 44.0012L8.4208 40.5333H18.7606ZM17.7169 54.0965C15.7586 54.8514 13.5594 53.8751 12.8047 51.9169L10.6679 46.36L25.7881 40.5333V40.5257H46.626L48.2724 42.3206L17.7169 54.0965ZM73.4667 73.4667H53.2V63.3333H73.4667V73.4667ZM73.4667 60.8H52.6363L52.0869 59.9222C48.9985 54.9866 48.8756 48.7527 51.7661 43.7C52.0397 43.2218 51.9726 42.6214 51.6002 42.2155L41.2202 30.8915C39.6723 29.1973 39.7594 26.5781 41.4165 24.9913C43.0743 23.4042 45.6947 23.4302 47.3198 25.049L67.5045 45.2289L69.2955 43.4378L64.6089 38.7511L65.9085 38.2445C69.1695 36.9864 70.7946 33.3244 69.54 30.0615L65.2526 18.9288L69.356 23.0407C71.978 25.662 73.4565 29.2144 73.4667 32.9222V60.8Z" fill="#76A135"/>
<path d="M14.4397 17.7333C16.2587 17.7333 17.7331 16.2589 17.7331 14.44V8.35998C17.7331 6.54105 16.2587 5.06665 14.4397 5.06665H8.35974C6.54081 5.06665 5.06641 6.54105 5.06641 8.35998V14.44C5.06641 16.2589 6.54081 17.7333 8.35974 17.7333H14.4397ZM7.59974 14.44V12.6667H10.1331V10.1333H7.59974V8.35998C7.59974 7.9404 7.94016 7.59998 8.35974 7.59998H14.4397C14.8593 7.59998 15.1997 7.9404 15.1997 8.35998V10.1333H12.6664V12.6667H15.1997V14.44C15.1997 14.8596 14.8593 15.2 14.4397 15.2H8.35974C7.94016 15.2 7.59974 14.8596 7.59974 14.44Z" fill="#76A135"/>
<path d="M6.33398 21.5333H11.4007V24.0667H6.33398V21.5333Z" fill="#76A135"/>
<path d="M6.33398 29.1333H11.4007V31.6666H6.33398V29.1333Z" fill="#76A135"/>
<path d="M29.1328 29.1333H34.1995V31.6666H29.1328V29.1333Z" fill="#76A135"/>
<path d="M13.9336 21.5333H19.0003V24.0667H13.9336V21.5333Z" fill="#76A135"/>
<path d="M21.5332 21.5333H26.5999V24.0667H21.5332V21.5333Z" fill="#76A135"/>
<path d="M29.1328 21.5333H34.1995V24.0667H29.1328V21.5333Z" fill="#76A135"/>
<path d="M53.1992 6.33337H55.7326V10.1334H53.1992V6.33337Z" fill="#76A135"/>
<path d="M48.1328 6.33337H50.6661V10.1334H48.1328V6.33337Z" fill="#76A135"/>
<path d="M43.0664 6.33337H45.5998V10.1334H43.0664V6.33337Z" fill="#76A135"/>
<path d="M38 6.33337H40.5333V10.1334H38V6.33337Z" fill="#76A135"/>
<path d="M55.7324 65.8667H58.2657V68.4H55.7324V65.8667Z" fill="#76A135"/>
</svg>
