<svg width="84" height="84" viewBox="0 0 84 84" fill="none" xmlns="http://www.w3.org/2000/svg">
<path d="M68.0038 30.93H62.7154L64.3088 12.6355C64.3118 12.6023 64.3123 12.5697 64.3124 12.537C64.3124 12.5342 64.3128 12.5316 64.3128 12.5288C64.3128 12.5283 64.3128 12.528 64.3128 12.5275C64.3128 12.0296 64.0124 11.5907 63.5709 11.3999C63.5671 11.3983 63.5635 11.3963 63.5597 11.3947C63.5323 11.3832 63.5039 11.3733 63.4754 11.3638C63.4647 11.3604 63.4545 11.3561 63.4439 11.3528C63.4206 11.3458 63.3966 11.3402 63.3728 11.3345C63.3561 11.3305 63.34 11.3258 63.3231 11.3225C63.3023 11.3184 63.2806 11.3158 63.2593 11.3126C63.2393 11.3097 63.2196 11.3062 63.1994 11.3044C63.196 11.3041 63.1929 11.3034 63.1894 11.3031C63.1678 11.3011 63.1464 11.3015 63.1249 11.3007C63.1105 11.3002 63.0964 11.2985 63.0819 11.2985H63.0665C63.0652 11.2985 63.0639 11.2985 63.0628 11.2985H37.9002C37.221 11.2985 36.6698 11.8498 36.6698 12.529C36.6698 13.2066 37.221 13.7595 37.9002 13.7595H61.7407L59.2919 41.8758C59.2916 41.8779 59.2916 41.8801 59.2913 41.8822L58.6734 48.9764H15.9171L16.6322 41.5939H24.7732C25.4529 41.5939 26.0037 41.043 26.0037 40.3635C26.0037 39.6839 25.4529 39.133 24.7732 39.133H16.8708L18.3808 23.5478H31.3377C32.0174 23.5478 32.5682 22.9969 32.5682 22.3173C32.5682 21.6378 32.0174 21.0869 31.3377 21.0869H18.6194L19.3294 13.7595H32.9783C33.6559 13.7595 34.2088 13.2066 34.2088 12.529C34.2088 11.8498 33.6559 11.2985 32.9783 11.2985H18.2127C18.212 11.2985 18.2115 11.2987 18.2108 11.2987C17.6329 11.2985 17.1315 11.7054 17.0102 12.2694C17.0094 12.2736 17.0079 12.2775 17.0071 12.2816C17.0009 12.3123 16.9968 12.3436 16.9927 12.3751C16.9915 12.3851 16.9894 12.3946 16.9884 12.4046C16.9882 12.4066 16.9878 12.4084 16.9876 12.4104L16.1469 21.0869H1.23047C0.55076 21.0869 0 21.6378 0 22.3173C0 22.9969 0.55076 23.5478 1.23047 23.5478H15.9084L14.3983 39.133H10.0082C9.32847 39.133 8.77771 39.6839 8.77771 40.3635C8.77771 41.043 9.32847 41.5939 10.0082 41.5939H14.16L13.3377 50.0794C13.3375 50.0807 13.3375 50.0821 13.3373 50.0832L12.066 63.2048C12.0659 63.2063 12.0657 63.2079 12.0655 63.2092L12.065 63.214C12.0634 63.2311 12.0636 63.2478 12.0626 63.2649C12.0614 63.2875 12.0591 63.3097 12.0591 63.3326C12.0591 63.3336 12.0593 63.3346 12.0593 63.3357C12.0593 63.3674 12.0616 63.3986 12.0639 63.4298C12.0649 63.4398 12.0645 63.4499 12.0657 63.4598C12.069 63.4916 12.0744 63.5229 12.0801 63.5541C12.0818 63.5633 12.0826 63.5727 12.0844 63.5817C12.0892 63.6053 12.0959 63.6281 12.1021 63.6512C12.1064 63.6675 12.1098 63.684 12.1148 63.7C12.1162 63.7044 12.1182 63.7087 12.1195 63.7133C12.1791 63.8963 12.2801 64.0607 12.412 64.1949C12.4145 64.1974 12.4165 64.2002 12.4189 64.2025C12.432 64.2156 12.4463 64.2274 12.4601 64.2399C12.5449 64.3177 12.6407 64.3836 12.7456 64.4353C12.7674 64.4461 12.7889 64.4574 12.8112 64.4668C12.8179 64.4697 12.8251 64.4717 12.832 64.4743C12.8629 64.4866 12.8939 64.4985 12.9259 64.5085C12.9288 64.5093 12.9316 64.5098 12.9346 64.5108C12.971 64.5216 13.0077 64.5311 13.0453 64.5388C13.0502 64.5398 13.0553 64.5401 13.0601 64.5411C13.0958 64.5478 13.1318 64.5536 13.1684 64.5572C13.1692 64.5572 13.1698 64.5574 13.1707 64.5575C13.211 64.5615 13.2511 64.5634 13.2908 64.5634C13.2912 64.5634 13.2919 64.5633 13.2926 64.5633H18.7703C19.3752 69.1493 23.307 72.7013 28.0558 72.7013C32.8043 72.7013 36.736 69.1493 37.3409 64.5633H57.0776C57.6826 69.1493 61.6142 72.7013 66.3629 72.7013C71.1114 72.7013 75.0435 69.1493 75.6485 64.5633H81.1276C81.1284 64.5633 81.1294 64.5634 81.1302 64.5634C81.1712 64.5634 81.2116 64.561 81.2516 64.557C81.2588 64.5564 81.2657 64.5549 81.2729 64.5541C81.3049 64.5503 81.3368 64.5459 81.3679 64.5396C81.3814 64.537 81.3943 64.5334 81.4076 64.5303C81.4318 64.5247 81.456 64.5188 81.4797 64.5117C81.4957 64.507 81.5113 64.5014 81.5271 64.496C81.5473 64.4891 81.5674 64.4819 81.5873 64.4738C81.6043 64.4671 81.6206 64.4597 81.6372 64.4524C81.6552 64.444 81.6733 64.4355 81.6908 64.4264C81.7076 64.4179 81.7236 64.409 81.7397 64.3999C81.7566 64.39 81.7733 64.3798 81.7899 64.3693C81.8053 64.3595 81.8207 64.3495 81.8355 64.339C81.8522 64.3273 81.8682 64.315 81.8844 64.3026C81.8979 64.2919 81.9115 64.2814 81.9246 64.2702C81.9415 64.256 81.9574 64.241 81.9735 64.2258C81.9846 64.2151 81.9963 64.2046 82.0071 64.1935C82.0242 64.1761 82.0404 64.1577 82.0567 64.1392C82.0654 64.1291 82.0744 64.1195 82.0828 64.1093C82.1008 64.087 82.1172 64.064 82.1336 64.0409C82.1392 64.0328 82.1454 64.0253 82.1508 64.0171C82.1709 63.9871 82.1897 63.9562 82.2071 63.9244C82.2084 63.9224 82.2097 63.9206 82.2106 63.9185C82.2291 63.8844 82.2462 63.8494 82.2614 63.8133C82.2657 63.803 82.269 63.7923 82.2731 63.782C82.2831 63.7566 82.2929 63.7311 82.3013 63.7047C82.3067 63.6877 82.3106 63.6701 82.3154 63.6529C82.3208 63.6324 82.3266 63.612 82.3311 63.5912C82.3353 63.5726 82.3379 63.5536 82.341 63.5347C82.3438 63.5182 82.3474 63.5019 82.3495 63.485C82.4017 63.067 83.3652 55.3365 83.7956 50.3378C83.7961 50.3331 83.7962 50.3282 83.7967 50.3234C83.9206 48.8824 84 47.669 84 46.9261C84 38.1059 76.8242 30.93 68.0038 30.93ZM62.501 33.3913H67.535L66.892 40.7735H61.858L62.501 33.3913ZM28.0561 70.2402C24.2471 70.2402 21.1482 67.1413 21.1482 63.3325C21.1482 59.5236 24.2472 56.4247 28.0561 56.4247C31.865 56.4247 34.9638 59.5236 34.9638 63.3325C34.9638 67.1413 31.865 70.2402 28.0561 70.2402ZM66.3629 70.2402C62.554 70.2402 59.4553 67.1413 59.4553 63.3325C59.4553 59.5236 62.5542 56.4247 66.3629 56.4247C70.1719 56.4247 73.2708 59.5236 73.2708 63.3325C73.2708 67.1413 70.1719 70.2402 66.3629 70.2402ZM80.0403 62.1015H75.6489C75.0441 57.5151 71.1122 53.963 66.3632 53.963C61.6146 53.963 57.6826 57.5153 57.0779 62.1015H37.3414C36.7367 57.5151 32.8049 53.963 28.0561 53.963C23.3073 53.963 19.3752 57.5153 18.7705 62.1015H14.6453L15.6787 51.4367H59.801V51.4374C59.8017 51.4374 59.8022 51.4374 59.8028 51.4374C59.844 51.4374 59.8848 51.4351 59.9252 51.431C59.9328 51.4303 59.9401 51.4287 59.9477 51.4277C59.9798 51.4239 60.0118 51.4193 60.0433 51.4131C60.057 51.4103 60.0702 51.4065 60.0837 51.4033C60.1083 51.3974 60.1329 51.3916 60.1569 51.3844C60.1733 51.3795 60.1889 51.3736 60.2048 51.368C60.2254 51.3608 60.2461 51.3537 60.2661 51.3455C60.2834 51.3385 60.2999 51.3306 60.3167 51.3227C60.3349 51.3143 60.3531 51.306 60.3706 51.2968C60.3874 51.2879 60.4038 51.2784 60.4204 51.2689C60.4373 51.2591 60.454 51.249 60.4704 51.2385C60.4863 51.2282 60.5014 51.2174 60.5167 51.2066C60.5329 51.1951 60.5487 51.1833 60.5644 51.171C60.5785 51.1596 60.5925 51.148 60.6062 51.136C60.6218 51.1226 60.6371 51.1088 60.6518 51.0945C60.6643 51.0825 60.6768 51.0702 60.6889 51.0576C60.7037 51.0422 60.718 51.0262 60.7321 51.01C60.7431 50.9972 60.7539 50.9844 60.7644 50.9713C60.778 50.9541 60.791 50.9363 60.8038 50.9185C60.8134 50.905 60.8228 50.8916 60.832 50.8778C60.844 50.8592 60.8554 50.8402 60.8664 50.8208C60.8748 50.8064 60.8833 50.792 60.8909 50.7772C60.9012 50.7578 60.9101 50.7382 60.9194 50.7183C60.9267 50.7024 60.934 50.6868 60.9406 50.6704C60.9486 50.651 60.9554 50.6312 60.9624 50.6113C60.9685 50.5938 60.9749 50.5762 60.9803 50.5582C60.9857 50.5391 60.9901 50.5196 60.9951 50.5003C60.9998 50.4807 61.0051 50.4614 61.0088 50.4415C61.0126 50.4222 61.0149 50.4025 61.0179 50.3828C61.0208 50.3624 61.0243 50.3424 61.0262 50.3218C61.0266 50.3188 61.0272 50.316 61.0274 50.3131L61.6441 43.2337H68.0035C71.7735 43.2337 73.4739 45.1871 75.2738 47.2553C76.7591 48.9617 78.4173 50.8656 81.2359 51.3301C80.8779 55.115 80.2992 59.9739 80.0403 62.1015ZM81.4462 48.8642C79.6177 48.4915 78.4927 47.206 77.1299 45.6402C75.4254 43.6821 73.3446 41.2925 69.3557 40.8473L69.9923 33.5386C76.5161 34.5035 81.539 40.1387 81.539 46.9265C81.539 47.3877 81.5046 48.0577 81.4462 48.8642Z" fill="#76A135"/>
<path d="M28.0567 58.8206C25.569 58.8206 23.5449 60.8444 23.5449 63.3323C23.5449 65.8201 25.569 67.844 28.0567 67.844C30.5443 67.844 32.5684 65.8201 32.5684 63.3323C32.5684 60.8446 30.5443 58.8206 28.0567 58.8206ZM28.0567 65.3831C26.9258 65.3831 26.0059 64.4632 26.0059 63.3323C26.0059 62.2014 26.9258 61.2815 28.0567 61.2815C29.1875 61.2815 30.1074 62.2014 30.1074 63.3323C30.1074 64.4632 29.1874 65.3831 28.0567 65.3831Z" fill="#76A135"/>
<path d="M66.3633 58.8206C63.8756 58.8206 61.8516 60.8444 61.8516 63.3323C61.8516 65.8201 63.8756 67.844 66.3633 67.844C68.851 67.844 70.875 65.8201 70.875 63.3323C70.875 60.8446 68.851 58.8206 66.3633 58.8206ZM66.3633 65.3831C65.2324 65.3831 64.3125 64.4632 64.3125 63.3323C64.3125 62.2014 65.2324 61.2815 66.3633 61.2815C67.4942 61.2815 68.4141 62.2014 68.4141 63.3323C68.4141 64.4632 67.4942 65.3831 66.3633 65.3831Z" fill="#76A135"/>
<path d="M11.6484 30.9303H5.63282C4.9531 30.9303 4.40234 31.4812 4.40234 32.1608C4.40234 32.8403 4.9531 33.3912 5.63282 33.3912H11.6484C12.3281 33.3912 12.8788 32.8403 12.8788 32.1608C12.8788 31.4812 12.3281 30.9303 11.6484 30.9303Z" fill="#76A135"/>
</svg>
