<svg width="81" height="81" viewBox="0 0 81 81" fill="none" xmlns="http://www.w3.org/2000/svg">
<g clip-path="url(#clip0_173:790)">
<path d="M80.9422 30.6694C80.9422 30.6519 80.9246 30.6357 80.9192 30.6168C80.8865 30.513 80.8411 30.4138 80.7842 30.3212L80.7748 30.3009L75.1186 21.9584C75.2347 21.764 75.3508 21.5683 75.4669 21.3469L75.6383 21.0175C75.881 20.533 76.0899 20.0324 76.2633 19.5191L76.3011 19.3841C76.4603 18.8726 76.586 18.3514 76.6778 17.8236L76.7102 17.6467C76.8021 17.0774 76.8531 16.5022 76.8627 15.9256V15.9107C76.8701 15.339 76.8381 14.7677 76.7668 14.2004C76.6906 13.6165 76.572 13.0391 76.4118 12.4725C76.0878 11.3306 75.5965 10.2429 74.9539 9.2448V9.23535C74.5808 8.66146 74.1603 8.11947 73.6971 7.61544L73.6377 7.55334C73.1629 7.04037 72.6433 6.5706 72.0853 6.14942C71.6176 5.80435 71.1259 5.49319 70.6139 5.21797L70.3831 5.09243C69.9153 4.85062 69.4324 4.6397 68.9373 4.46066L68.6673 4.37427C68.1901 4.21565 67.7036 4.0864 67.2107 3.98684L67.0582 3.95309C66.5432 3.86214 66.0228 3.80443 65.5004 3.7803L65.1845 3.7695C64.616 3.75432 64.0472 3.77963 63.4822 3.8451C62.9652 3.90973 62.4526 4.00608 61.9474 4.13398L61.7557 4.17988C61.2537 4.31791 60.7608 4.48733 60.2802 4.68745L60.0102 4.80625C59.5121 5.0246 59.0295 5.27669 58.5658 5.56085C58.136 5.83354 57.7236 6.13238 57.3306 6.45585L57.0607 6.68669C56.6653 7.02485 56.2924 7.38831 55.9443 7.77473L53.6224 10.376C53.5468 10.0426 53.4631 9.72537 53.3673 9.42299C53.1778 8.83307 52.9473 8.25699 52.6775 7.69913L52.5533 7.44265C52.2797 6.89323 51.9691 6.36338 51.6232 5.85649C51.3397 5.44864 51.0341 5.05666 50.7079 4.68205L50.4919 4.44447C50.222 4.14934 49.9434 3.86754 49.6563 3.59941L49.3782 3.34698C49.0705 3.07699 48.7492 2.82186 48.3618 2.53702L48.1944 2.41823C47.7651 2.11888 47.3188 1.84434 46.8579 1.59613C46.4297 1.36917 45.9894 1.16533 45.5391 0.98596L45.1246 0.832069C44.7885 0.710576 44.4497 0.599882 44.1014 0.504037C43.934 0.456284 43.7666 0.411399 43.5992 0.369045C43.2523 0.2867 42.8973 0.223253 42.5409 0.167906L42.4059 0.144958C42.2938 0.127409 42.1818 0.10986 42.0698 0.0963604C41.0943 -0.021758 40.1087 -0.0313762 39.131 0.068012C38.9487 0.0869109 38.7692 0.115259 38.591 0.146308L38.24 0.200305C38.0888 0.220553 37.939 0.242152 37.7945 0.271851C37.4598 0.340697 37.1344 0.431142 36.7443 0.541835C36.6647 0.560734 36.585 0.580983 36.5054 0.605282C36.1314 0.721375 35.767 0.857718 35.4254 0.99946C35.3971 1.00891 35.3026 1.04401 35.2742 1.05616C34.8814 1.2222 34.4967 1.40714 34.0971 1.62042C32.9929 2.21422 31.9791 2.96292 31.0868 3.84375C31.0719 3.8559 31.0625 3.87345 31.0476 3.88695C31.0328 3.90045 31.0112 3.9099 30.9963 3.9261C29.7574 5.15925 28.7674 6.61953 28.0805 8.22695C27.9253 8.59278 27.7903 8.96806 27.6755 9.32309C27.6634 9.35414 27.631 9.44323 27.6215 9.47563C27.5135 9.82121 27.4285 10.1749 27.3394 10.5637C27.3299 10.5947 27.2921 10.7432 27.2867 10.7743C27.2813 10.8053 27.2786 10.8229 27.2732 10.8472C27.2476 10.808 27.2233 10.7662 27.1963 10.7284L27.0006 10.457C26.9047 10.3085 26.8075 10.1587 26.7036 10.0197C26.5456 9.80637 26.3742 9.60523 26.2014 9.40544L26.0772 9.25695C26.0111 9.17595 25.9422 9.0963 25.8747 9.01801C25.6425 8.76557 25.3982 8.52934 25.1107 8.26205C25.0918 8.2445 24.9878 8.14326 24.9689 8.12706C24.6841 7.87462 24.3858 7.63704 23.9902 7.34275C23.6608 7.10382 23.3153 6.88243 22.9494 6.66779C22.2309 6.24948 21.4736 5.90137 20.6883 5.62835C19.8736 5.34352 19.0311 5.14525 18.1748 5.03708C18.1386 5.02898 18.1022 5.02325 18.0654 5.01953C17.6134 4.96452 17.1588 4.93297 16.7033 4.92504C16.2984 4.92504 15.8934 4.93719 15.4641 4.97094L15.3291 4.98039C14.9525 5.01548 14.5759 5.07623 14.1655 5.15183L13.9616 5.18692C13.6147 5.25982 13.2691 5.35566 12.8507 5.47851C12.7724 5.49876 12.6941 5.52036 12.6171 5.546C12.2837 5.654 11.9543 5.78899 11.5547 5.95098C11.4724 5.98203 11.3887 6.01443 11.3036 6.05223C10.8708 6.2505 10.449 6.47222 10.0401 6.71639C9.43315 7.08627 8.85741 7.50525 8.31896 7.96912C8.30141 7.98397 8.18397 8.07846 8.17182 8.09331C7.67572 8.53356 7.21489 9.0121 6.79355 9.52423L6.6464 9.70377C6.24666 10.208 5.88555 10.7419 5.56646 11.3007L5.47197 11.4735C5.14917 12.0562 4.87328 12.6638 4.64717 13.2905V13.2973C4.50509 13.6958 4.38292 14.1013 4.28134 14.5122L4.22734 14.7187C4.14904 15.0576 4.0829 15.3937 4.0316 15.7447L3.9938 16.0633C3.95601 16.3737 3.92901 16.6842 3.91281 17.0001L3.90201 17.3902C3.90201 17.6818 3.90201 17.9734 3.91956 18.269L3.94926 18.701C3.9749 18.9818 4.0127 19.2599 4.0721 19.646L4.1315 19.9942C4.18549 20.2642 4.25434 20.5423 4.35558 20.927C4.38393 21.0418 4.41363 21.1552 4.44738 21.2659C4.53512 21.5534 4.64177 21.8382 4.79026 22.2284C4.82401 22.3242 4.8591 22.4187 4.89825 22.5092C5.07222 22.921 5.26779 23.3235 5.48412 23.7146L6.13073 24.8783L0.443503 30.0539C-0.10794 30.5555 -0.148438 31.4094 0.353396 31.9608C0.367739 31.9767 0.382588 31.992 0.397606 32.0072L27.5405 59.1528C27.9388 59.9822 28.5481 60.6921 29.3076 61.2115L20.3927 79.0467C20.0594 79.7135 20.3299 80.5243 20.9968 80.8576C21.1844 80.9512 21.3911 81 21.6009 81H58.0488C58.7943 81 59.3987 80.3954 59.3986 79.6499C59.3986 79.4672 59.3614 79.2863 59.2894 79.1182L51.6299 61.2439C52.4164 60.7245 53.0484 60.0026 53.4591 59.1542L80.6047 32.0072C80.6303 31.9816 80.6465 31.9492 80.6708 31.9208C80.6951 31.8925 80.741 31.8493 80.7707 31.8061C80.7788 31.7926 80.7829 31.7764 80.791 31.7629C80.8332 31.6922 80.8684 31.6176 80.8963 31.5401C80.9125 31.4969 80.9354 31.4578 80.9476 31.4132C80.9695 31.3247 80.9832 31.2344 80.9881 31.1433C80.9881 31.1109 80.9989 31.0798 80.9989 31.0474C80.998 30.9193 80.979 30.7921 80.9422 30.6694ZM76.6481 29.0347L70.9959 27.8319L72.7508 25.3453L73.4609 24.3423L76.6481 29.0347ZM72.8291 13.5335C73.0559 13.3175 73.2813 13.0988 73.4919 12.8585C73.5378 12.8059 73.5824 12.7505 73.6418 12.6736C73.7025 12.8504 73.7592 13.0286 73.8105 13.2136C73.9344 13.6562 74.0245 14.1074 74.0805 14.5635C74.1352 14.9978 74.1595 15.4354 74.1534 15.8729V15.9445C74.1419 16.3709 74.1023 16.7963 74.0346 17.2174L73.9982 17.4051C73.9202 17.8307 73.8151 18.251 73.6836 18.6632C73.5485 19.0601 73.3861 19.447 73.1977 19.8215L73.0627 20.0725C72.8607 20.4623 72.631 20.8373 72.3755 21.1943L71.4563 22.4943L71.2133 22.8358C71.1161 22.7872 71.0175 22.74 70.923 22.6887C70.1316 22.2805 69.3629 21.8298 68.6201 21.3388L68.6052 21.3307C68.1152 21.0013 67.6468 20.6557 67.1918 20.2939C66.9084 20.0671 66.637 19.8161 66.3616 19.5717C66.1942 19.4232 66.0201 19.2869 65.8554 19.1303C65.7407 19.0209 65.6286 18.9062 65.5166 18.7928C65.3127 18.5863 65.1116 18.3689 64.8943 18.134L64.7431 17.9707C64.6472 17.8614 64.5541 17.7466 64.4609 17.6346C64.2585 17.3916 64.056 17.1392 63.8305 16.8408C63.7995 16.7976 63.7738 16.7558 63.7441 16.7058H63.7603L64.1802 16.6964C64.3624 16.6964 64.5446 16.6856 64.735 16.6761L65.2385 16.637C65.414 16.6221 65.5908 16.6046 65.7785 16.583C65.9391 16.5641 66.0998 16.5411 66.2617 16.5182L66.3373 16.5074C66.4723 16.4871 66.6073 16.4615 66.7774 16.4304L66.853 16.4183L66.9016 16.4075H66.9232C67.1068 16.3737 67.2917 16.34 67.4753 16.2968C67.586 16.2712 67.6954 16.2401 67.9343 16.1753C68.2272 16.097 68.5026 16.0147 68.7712 15.9256C69.0696 15.8257 69.3571 15.7204 69.6366 15.6029C69.8809 15.499 70.1198 15.3789 70.4465 15.2142L70.4668 15.2034C70.5626 15.1548 70.6571 15.1075 70.7516 15.0549C70.9919 14.9199 71.2254 14.7714 71.4616 14.6148C71.5831 14.5351 71.7033 14.4528 71.8248 14.3637C72.0583 14.195 72.2865 14.0154 72.5132 13.8237C72.6037 13.7468 72.6847 13.6698 72.8291 13.5335ZM60.6353 7.49259C60.7784 7.41565 60.9403 7.3387 61.1145 7.26176L61.3129 7.17266C61.6867 7.01556 62.0704 6.88344 62.4617 6.77713L62.6547 6.73124C63.0648 6.62864 63.4811 6.55203 63.9007 6.50175C64.3065 6.46041 64.7147 6.4459 65.1224 6.45855L65.3654 6.46665C65.7635 6.4864 66.1597 6.53162 66.552 6.60164L66.7113 6.63809C67.0842 6.71301 67.452 6.81088 67.8128 6.93103L68.018 6.99717C68.4 7.1347 68.7726 7.29753 69.133 7.4845L69.3666 7.61274C69.7469 7.81793 70.1122 8.04978 70.46 8.3066C70.9062 8.64543 71.3216 9.02256 71.7019 9.43379C71.8815 9.63222 72.0543 9.83876 72.2163 10.048C72.2068 10.0642 72.1987 10.0817 72.1879 10.0979C72.0063 10.3838 71.8071 10.6578 71.5912 10.9187L71.5359 10.9902L71.467 11.0793C71.3105 11.2575 71.1431 11.4168 70.9068 11.6409L70.7502 11.7867C70.5855 11.9284 70.4155 12.0567 70.2454 12.1917L69.9754 12.3793C69.8012 12.4941 69.6271 12.6075 69.4449 12.7087L69.3787 12.7424L69.1371 12.8653L68.9373 12.9638C68.8212 13.0219 68.7078 13.0813 68.5863 13.1312C68.3879 13.2149 68.1813 13.2932 67.9599 13.3675C67.7386 13.4417 67.505 13.5106 67.2512 13.5781L66.8773 13.6779C66.7099 13.7171 66.5439 13.7481 66.367 13.7792L66.2145 13.8062C66.1241 13.8237 66.0323 13.8413 65.9445 13.8548C65.7866 13.8804 65.63 13.8993 65.4815 13.9169L64.6 13.9952C64.4353 14.0046 64.2774 14.0087 64.1221 14.0141H63.9804H63.763C63.5146 14.0141 63.2676 14.0141 63.0368 14.0033L62.1364 13.9236C62.0608 13.7562 61.9744 13.5875 61.9055 13.4228L61.8407 13.2743C61.7057 12.9328 61.5829 12.5994 61.4749 12.274C61.4614 12.2335 61.4479 12.1971 61.4344 12.1566L61.3899 12.0216C61.2837 11.6841 61.1906 11.3552 61.1104 11.0348L61.0699 10.8634C60.993 10.538 60.9255 10.2208 60.8593 9.83876C60.8094 9.54043 60.7676 9.2556 60.7244 8.89382C60.6947 8.62383 60.6731 8.36465 60.6515 8.00961C60.6434 7.85707 60.6393 7.70993 60.6353 7.55199V7.49259ZM53.999 14.0168L57.9624 9.56203C57.9948 9.52423 58.0299 9.48643 58.0637 9.44998C58.0731 9.51883 58.0839 9.59578 58.0933 9.66732C58.1028 9.73887 58.1082 9.77667 58.1163 9.83336C58.1393 9.9859 58.1649 10.1519 58.1959 10.3355L58.204 10.3855C58.2648 10.7365 58.339 11.1063 58.4416 11.5221L58.4808 11.6841C58.5118 11.8083 58.555 11.9419 58.5901 12.0702C58.659 12.3226 58.7251 12.5737 58.8075 12.8369L58.8804 13.0637C59.0154 13.4687 59.1611 13.8737 59.3312 14.2935L59.4055 14.465C59.5918 14.9091 59.7943 15.36 60.0291 15.8149C60.2316 16.2077 60.4598 16.6059 60.7217 17.0366L60.8485 17.2417C61.051 17.5644 61.2805 17.9019 61.5519 18.2771C61.591 18.3325 61.6234 18.3878 61.6639 18.4418L61.7476 18.5512C62.05 18.9562 62.3726 19.3544 62.7938 19.8363C62.9801 20.0455 63.1718 20.2534 63.381 20.4694C63.5916 20.6868 63.8184 20.9108 64.0735 21.1538C64.137 21.2132 64.2085 21.2686 64.2747 21.328C65.1735 22.1597 66.1359 22.9202 67.1527 23.6026C67.6927 23.9603 68.2542 24.2992 68.836 24.6299C68.971 24.7055 69.106 24.7797 69.241 24.854C69.376 24.9282 69.5002 25.0038 69.6366 25.0754L68.4648 26.7331L68.1206 27.2204L53.999 24.2155V14.0168ZM35.3917 3.98819C35.6914 3.8289 35.9978 3.67906 36.2934 3.55487L36.4217 3.50762C36.7306 3.37954 37.0462 3.26733 37.3666 3.17149L37.5475 3.12559C37.8067 3.05134 38.0645 2.9771 38.3345 2.9231C38.4223 2.9042 38.5114 2.8934 38.6045 2.88125L39.0446 2.81376C39.162 2.79351 39.2808 2.77191 39.405 2.75976C40.1893 2.68282 40.9795 2.69091 41.762 2.78406L42.1359 2.84211C42.4221 2.8853 42.7056 2.9366 42.9864 3.00275C43.1213 3.03515 43.2563 3.06889 43.3913 3.10534C43.6694 3.18229 43.9421 3.27003 44.2013 3.36723L44.5388 3.49007C44.9075 3.63637 45.2681 3.80275 45.6187 3.98819C46.0023 4.19625 46.3723 4.42793 46.727 4.68205L46.8431 4.7698C47.1131 4.96149 47.3655 5.16533 47.6112 5.38131L47.8339 5.5838C48.0675 5.79979 48.2902 6.02523 48.4994 6.25876L48.6776 6.4545C48.7586 6.549 48.8396 6.64484 48.9179 6.74204C48.7829 6.98637 48.6587 7.23206 48.5129 7.4656C48.4049 7.63569 48.3064 7.81253 48.1917 7.97722C47.8439 8.47905 47.4585 8.95389 47.0388 9.39734L47.024 9.41489C46.7972 9.64842 46.5664 9.87251 46.3099 10.1006C46.1681 10.2262 46.0115 10.349 45.8603 10.4719C45.7564 10.5569 45.6619 10.642 45.5485 10.7297C45.2961 10.9241 45.0382 11.109 44.7507 11.3007C44.5982 11.402 44.4416 11.4938 44.2863 11.5896C43.7261 11.5383 43.1753 11.4816 42.6664 11.402C42.4936 11.3736 42.3343 11.3345 42.1656 11.3034C41.7687 11.2292 41.3799 11.1522 41.0182 11.0631C40.6982 10.9821 40.3932 10.889 40.0908 10.7932C39.9247 10.7419 39.7546 10.6933 39.598 10.6379C39.2403 10.5137 38.8974 10.3787 38.5654 10.2329C38.4965 10.2032 38.4304 10.1749 38.3602 10.1438C37.9849 9.97342 37.6185 9.78375 37.2627 9.57553C36.1902 8.95693 35.2476 8.13634 34.4872 7.15916C34.3765 7.00932 34.2739 6.86083 34.1808 6.71639L34.0958 6.5814C34.0323 6.4761 33.9608 6.35866 33.8838 6.20882C33.8595 6.16292 33.8393 6.12782 33.8096 6.07382C33.6918 5.84062 33.5863 5.60135 33.4937 5.35701L33.4802 5.30572C34.0682 4.79933 34.7091 4.35756 35.3917 3.98819ZM29.7652 12.3442C29.7652 12.3226 29.7908 12.1809 29.7935 12.1593C29.83 11.8758 29.8651 11.5937 29.9285 11.2967C29.9285 11.2737 29.9663 11.1509 29.9717 11.1279C30.0365 10.8418 30.1067 10.5569 30.1783 10.318L30.2282 10.183C30.3286 9.86509 30.4447 9.55241 30.5765 9.24615C30.8384 8.64273 31.1546 8.06429 31.5215 7.51824C31.5862 7.63839 31.6713 7.77743 31.759 7.92322C31.7725 7.94617 31.7847 7.96912 31.7995 7.99342L31.813 8.01502L31.8252 8.03661L31.9102 8.17161C32.0358 8.36734 32.1721 8.56578 32.3071 8.74667L32.38 8.84387L32.4205 8.89652C32.5474 9.06256 32.6905 9.23265 32.839 9.40409C32.9065 9.48238 32.9767 9.56068 33.0496 9.63897C33.1414 9.74022 33.2399 9.84011 33.3411 9.94136C33.4923 10.0952 33.6557 10.2478 33.8258 10.4003C33.9135 10.48 34.0013 10.5596 34.0958 10.6379C34.2226 10.7446 34.3549 10.8512 34.4926 10.9565C34.5804 11.024 34.6722 11.0915 34.7626 11.159C34.9983 11.3318 35.2486 11.501 35.5132 11.6666C35.6293 11.7408 35.7454 11.8137 35.8669 11.8852C36.0261 11.9784 36.1895 12.0702 36.3596 12.1552C36.5297 12.2403 36.6701 12.3159 36.8307 12.3942C37.0629 12.5076 37.3018 12.6183 37.5529 12.7262C37.7716 12.8194 37.9943 12.9125 38.2279 12.9962C38.3912 13.0583 38.5573 13.1177 38.7287 13.1758C39.013 13.2748 39.3087 13.368 39.6156 13.4552C39.6952 13.4782 39.7641 13.5052 39.8451 13.5281C39.7749 13.5497 39.7101 13.5781 39.6412 13.5997C39.0594 13.7792 38.4398 13.9236 37.8175 14.0681C37.5084 14.1396 37.2181 14.2274 36.8982 14.2908C35.937 14.4798 34.9381 14.6364 33.8892 14.7471C32.9443 14.847 31.9872 14.9118 30.9896 14.9428L30.293 14.9563H30.158H29.7018L29.7004 13.5038C29.7002 13.1164 29.7218 12.7293 29.7652 12.3442ZM29.7004 17.6886H30.1742H30.3268L31.1367 17.671C32.1586 17.64 33.1819 17.5698 34.1795 17.4645C37.0344 17.1913 39.8372 16.5216 42.5071 15.4747C42.63 15.4247 42.7677 15.3883 42.8892 15.3397C43.6767 15.0051 44.4431 14.6229 45.184 14.195C45.2083 14.1815 45.2367 14.1707 45.261 14.1572C45.589 13.9668 45.9116 13.7657 46.2572 13.5362C46.5704 13.327 46.8768 13.1069 47.2022 12.8612C47.5046 12.6277 47.8002 12.3847 48.1012 12.1161C48.4023 11.8474 48.6763 11.5829 48.9517 11.2967C48.9652 11.2818 48.976 11.267 48.9895 11.2535C49.2594 10.9692 49.52 10.6739 49.7711 10.3679C49.8156 10.3139 49.8534 10.2559 49.8966 10.2005C50.0964 9.94676 50.3016 9.69162 50.4771 9.42569C50.5999 9.71457 50.7025 9.9913 50.7903 10.2653C50.9337 10.7304 51.0447 11.2049 51.1223 11.6855L51.175 12.027C51.2508 12.5158 51.2923 13.0092 51.2992 13.5038V23.6404L34.2213 20.0077L29.7004 19.0452V17.6886ZM19.5476 15.3694V15.3735C19.7555 15.0103 19.9526 14.6391 20.1294 14.2611C20.351 13.789 20.5489 13.306 20.7221 12.814C20.7369 12.7735 20.7531 12.7384 20.7666 12.6966C20.8895 12.3375 20.9961 11.9676 21.0973 11.5802C21.1297 11.456 21.1635 11.3372 21.1945 11.2062L21.2107 11.1428V11.1239L21.2256 11.0658C21.2769 10.8404 21.3201 10.615 21.3606 10.3787C21.4011 10.1425 21.4375 9.90086 21.4713 9.63897L21.5037 9.41624C21.5199 9.27314 21.5334 9.1287 21.5455 8.98426L21.6063 9.01936C21.9076 9.19654 22.1992 9.38974 22.4797 9.59848C22.7186 9.77532 22.9521 9.96026 23.2073 10.1897L23.3193 10.2977C23.5151 10.4786 23.7067 10.6622 23.8863 10.8566L24.1563 11.1792C24.2913 11.3291 24.4155 11.4803 24.5369 11.6423C24.6058 11.7368 24.6719 11.8353 24.734 11.9352L24.9568 12.2713C25.0108 12.3496 25.0648 12.4279 25.1134 12.5089C25.2958 12.8179 25.462 13.136 25.6115 13.462L27.0006 16.5614V18.4715L23.3963 17.7048L18.681 16.7018L18.6931 16.6856C18.7552 16.6046 18.8146 16.5236 18.8686 16.448C18.9793 16.2873 19.086 16.1254 19.1966 15.9499C19.3073 15.7744 19.4234 15.5827 19.5476 15.3694ZM7.83839 12.7694L7.90993 12.6345C8.16136 12.1932 8.44653 11.772 8.76308 11.375L8.89808 11.2116C9.68356 10.4202 10.529 9.69044 11.4265 9.02881C11.7717 8.82362 12.1293 8.63969 12.497 8.47804L12.6833 8.40514C12.9583 8.28399 13.2394 8.17717 13.5256 8.08521L13.6957 8.03796C13.9657 7.95697 14.2357 7.87867 14.5489 7.81658L14.7 7.79093C14.9943 7.73558 15.29 7.68833 15.5627 7.65594L15.7057 7.64784C16.0424 7.61814 16.3804 7.60683 16.7182 7.61409C17.0602 7.62134 17.3999 7.64463 17.7374 7.68428C18.1282 7.73288 18.5158 7.80409 18.8983 7.89757C18.8983 8.03256 18.8983 8.18106 18.8848 8.32415C18.8848 8.37275 18.8848 8.41999 18.8781 8.46859C18.8632 8.69538 18.8416 8.92891 18.8133 9.18135C18.8133 9.19215 18.8038 9.2421 18.7971 9.28799L18.789 9.34334C18.739 9.71727 18.681 10.0885 18.5986 10.453L18.573 10.5542L18.5568 10.6177C18.4582 11.0358 18.3379 11.4485 18.1964 11.8542V11.8677C18.1005 12.1377 17.9804 12.4077 17.8656 12.6777C16.9111 13.155 15.8941 13.4954 14.8445 13.6887C14.3666 13.7481 13.9535 13.7846 13.7416 13.8008C12.484 13.8791 11.2216 13.8248 9.97532 13.6388C9.87542 13.6186 9.76608 13.6037 9.67158 13.5821L9.51634 13.5484C9.4151 13.5254 9.3125 13.5025 9.19776 13.4728C9.18274 13.468 9.16739 13.4645 9.15186 13.462L8.84543 13.3823L8.68479 13.3391L8.14482 13.1744C7.99768 13.1272 7.85594 13.0799 7.70879 13.0286C7.74794 12.9382 7.79249 12.8545 7.83839 12.7694ZM6.61266 17.1297C6.62346 16.884 6.64505 16.6383 6.6842 16.313L6.70445 16.1416C6.7328 15.9499 6.7679 15.7582 6.80839 15.5678C6.96769 15.6245 7.13643 15.6799 7.31192 15.7379L7.48876 15.7946H7.49956C7.61835 15.8324 7.75334 15.8702 7.90453 15.9134L7.95718 15.9283L8.05707 15.9566L8.13132 15.9769L8.22581 16.0025L8.27711 16.016C8.34056 16.0336 8.4121 16.0484 8.47555 16.0646C8.62134 16.1011 8.76713 16.1375 8.91968 16.1726L9.11271 16.2145H9.13296C9.59869 16.3143 10.113 16.398 10.6543 16.4642C10.7893 16.4804 10.9243 16.4858 11.0593 16.4993C11.4926 16.5411 11.9381 16.5695 12.4092 16.5762C12.4916 16.5762 12.5645 16.5911 12.6468 16.5911C12.9546 16.5911 13.2691 16.5789 13.5918 16.5587C13.6917 16.5587 13.7916 16.5438 13.8941 16.5357C14.3921 16.4957 14.8877 16.4304 15.3791 16.34C15.4209 16.3332 15.4601 16.3319 15.5033 16.3238C15.4236 16.4088 15.3521 16.4993 15.2697 16.5816L8.18262 23.0194L7.83839 22.4106C7.66695 22.1015 7.51238 21.7834 7.37536 21.4576L7.26197 21.1538C7.17692 20.9324 7.09188 20.7084 7.02303 20.4789L6.96634 20.2683L6.92989 20.1333C6.87184 19.9173 6.81649 19.7013 6.77465 19.4867L6.7166 19.1316C6.6815 18.9103 6.6518 18.6902 6.6329 18.4729L6.6167 18.1273C6.60591 17.8965 6.59916 17.667 6.60321 17.4388L6.61266 17.1297ZM31.8846 62.1011H37.9781L35.0205 66.5356C33.2404 69.2086 30.4003 70.991 27.2192 71.4317L31.8846 62.1011ZM29.7004 56.8809V56.5218C29.7011 55.1302 30.8291 54.0022 32.2207 54.0015H33.0307C33.8735 54.001 34.6607 54.4227 35.1271 55.1247L37.9768 59.4012H32.2207C31.9716 59.3977 31.7246 59.3567 31.4877 59.2797L29.8219 57.6139C29.7449 57.377 29.7039 57.13 29.7004 56.8809ZM56.001 78.3002H23.785L25.8099 74.2396C30.4196 74.1927 34.7073 71.8676 37.2613 68.0299L40.4998 63.181L43.7396 68.0407C46.1116 71.5936 49.984 73.8601 54.2434 74.1883L56.001 78.3002ZM52.9947 71.2806C50.1239 70.6761 47.6041 68.9713 45.9751 66.5315L43.0215 62.1011H49.0597L52.9947 71.2806ZM43.0228 59.3972L45.8738 55.1206C46.3413 54.4202 47.1283 54 47.9703 54.0015H48.7802C50.1713 54.003 51.2985 55.1307 51.2992 56.5218V56.8809C51.2956 57.13 51.2546 57.377 51.1777 57.6139L49.5119 59.2757C49.275 59.3526 49.0279 59.3936 48.7789 59.3972H43.0228ZM53.7574 55.0302C53.103 52.8246 51.0795 51.3091 48.7789 51.3017H47.9689C46.2233 51.3 44.5929 52.1727 43.6262 53.6263L40.4998 58.3213L37.372 53.6303C36.4063 52.1753 34.7758 51.3008 33.0293 51.3017H32.2194C29.9176 51.3096 27.8939 52.8269 27.2408 55.0342L3.30804 31.1001L16.5899 19.0182L73.8159 31.1878L76.9356 31.852L53.7574 55.0302Z" fill="#76A135"/>
</g>
<defs>
<clipPath id="clip0_173:790">
<rect width="81" height="81" fill="white"/>
</clipPath>
</defs>
</svg>
