<svg width="81" height="81" viewBox="0 0 81 81" fill="none" xmlns="http://www.w3.org/2000/svg">
<g clip-path="url(#clip0_173:794)">
<path d="M40.5542 81.0003C40.3265 81.0003 40.0974 80.9519 39.8849 80.8549C17.8236 70.8529 3.56836 48.7369 3.56836 24.5135V15.679C3.56836 14.7841 4.29372 14.0587 5.18866 14.0587C18.9539 14.0587 26.4131 12.0764 26.4131 1.6203C26.4131 0.725361 27.1384 0 28.0334 0H53.075C53.9699 0 54.6953 0.725361 54.6953 1.6203C54.6953 12.0764 62.1544 14.0587 75.9197 14.0587C76.8139 14.0587 77.5393 14.7841 77.5393 15.679V24.5135C77.5393 48.7369 63.2847 70.8529 41.2235 80.8549C41.0103 80.9519 40.7819 81.0003 40.5542 81.0003ZM6.80826 17.2903V24.5135C6.80826 47.2239 20.0288 67.977 40.5542 77.5964C61.0795 67.977 74.2994 47.2239 74.2994 24.5135V17.2903C63.419 17.1657 52.3877 15.5655 51.5114 3.2399H29.5969C28.7207 15.5655 17.6887 17.1657 6.80826 17.2903Z" fill="#76A135"/>
</g>
<defs>
<clipPath id="clip0_173:794">
<rect width="81" height="81" fill="white"/>
</clipPath>
</defs>
</svg>
