<svg width="30" height="30" viewBox="0 0 30 30" fill="none" xmlns="http://www.w3.org/2000/svg">
<g clip-path="url(#clip0)">
<path d="M25.0001 21.6179L23.7266 20.855C23.3384 20.6228 22.8943 20.5002 22.442 20.5H20.5254C20.1331 20.4993 19.7425 20.5498 19.3631 20.6499L13.5887 22.2C12.9573 22.3743 12.4503 22.8445 12.2291 23.4609L7.14996 20.7131C6.73809 20.4788 6.25592 20.3992 5.79058 20.4885C5.61505 20.5195 5.44488 20.5754 5.28497 20.6545C4.92388 20.8274 4.62432 21.1067 4.42608 21.4546C4.25274 21.7576 4.16168 22.1006 4.16168 22.4495C4.15631 23.1619 4.53375 23.822 5.14996 24.179L14.253 29.6255C14.6485 29.8704 15.1041 30 15.5691 30H22.6141C22.9288 30.0003 23.2405 29.9407 23.533 29.825L25.0001 29.2456V30H30.0001V20H25.0001V21.6179ZM23.1656 28.895C22.9905 28.9641 22.8038 28.9998 22.6155 29H15.5691C15.2874 28.9998 15.0113 28.9204 14.7725 28.771L5.65704 23.3181C5.34722 23.1392 5.15753 22.8076 5.15997 22.45C5.1607 22.2747 5.20684 22.1023 5.294 21.95C5.39361 21.7773 5.54351 21.6389 5.72345 21.5535C5.80279 21.5149 5.88678 21.4876 5.97345 21.4724C6.03668 21.4607 6.10089 21.4546 6.1651 21.4546C6.33697 21.4541 6.50592 21.499 6.65509 21.5845L12.1627 24.5606C12.169 24.5911 12.169 24.6211 12.1771 24.6516C12.4139 25.5244 13.2056 26.1306 14.1102 26.1316C14.3885 26.1062 14.6641 26.0569 14.9341 25.9846L20.129 24.5945L19.8712 23.6284L14.6932 25.0125C14.4651 25.0649 14.171 25.125 14.1102 25.1301C13.6585 25.1309 13.2625 24.8291 13.1436 24.3936C13.1275 24.333 13.118 24.271 13.1146 24.2085C13.1146 24.2085 13.1107 24.0874 13.1146 24.0449C13.1526 23.6267 13.4456 23.2756 13.8502 23.1631L19.6221 21.6189C19.9168 21.54 20.2205 21.5 20.5254 21.5H22.442C22.7134 21.5 22.9798 21.5737 23.2125 21.7131L25.0001 22.7835V28.1699L23.1656 28.895ZM26.0001 21H29.0001V29H26.0001V21Z" fill="#343434"/>
<path d="M20.6221 3.99977L17.9399 1.31789C17.0979 0.470966 15.9521 -0.00364378 14.7581 -0.000225807H8.47192C8.08398 0.000262475 7.70142 0.0908386 7.354 0.26369L6.2334 0.824237C6.00879 0.937274 5.75928 0.991229 5.50806 0.98122L5 0.963397V-0.000225807H0V10.9998H5V9.49977H5.8501L6.15259 9.69973C6.99902 10.2617 7.98462 10.5791 9 10.6162V16.9998H30V3.99977H20.6221ZM4 9.99977H1V0.999774H4V9.99977ZM6.70605 8.86769L6.1499 8.49977H5V1.96389L5.47144 1.98073C5.89014 1.99562 6.30566 1.90554 6.68042 1.71877L7.80005 1.15822C8.00854 1.05397 8.23877 0.999774 8.47192 0.999774H14.7581C15.6868 0.997089 16.5781 1.36623 17.2329 2.02468L19.208 3.99977H15.082L13.8684 2.7864L13.1616 3.49318L16.6936 7.02541C17.0859 7.41603 17.0872 8.0508 16.6965 8.44338C16.3057 8.83571 15.6709 8.83693 15.2786 8.44631L12.3286 5.49636L11.9785 5.7964C11.012 6.61721 9.59912 6.6382 8.6084 5.84621L8.3186 5.61135L7.68848 6.3882L7.98145 6.62575C8.28784 6.87062 8.63184 7.06447 9 7.19973V9.61574C8.18164 9.57936 7.38843 9.32082 6.70605 8.86769ZM13.8186 8.39968L14.573 9.15431C15.3562 9.9258 16.6135 9.92702 17.3979 9.15676C16.6641 10.2932 16.9536 11.8057 18.0554 12.5906C19.1572 13.3755 20.6814 13.155 21.5156 12.0904C22.3499 11.0254 22.1992 9.49269 21.1733 8.61086C20.1477 7.72902 18.6096 7.80983 17.6821 8.79421C18.0237 8.25783 18.0847 7.58937 17.8459 6.99977H24.5415C24.7566 8.25783 25.7419 9.24318 27 9.45827V11.5413C25.7419 11.7564 24.7566 12.7417 24.5415 13.9998H14.4585C14.2434 12.7417 13.2581 11.7564 12 11.5413V9.45827C12.7146 9.33791 13.3608 8.96169 13.8186 8.39968ZM18 10.4998C18 9.6714 18.6716 8.99977 19.5 8.99977C20.3284 8.99977 21 9.6714 21 10.4998C21 11.3281 20.3284 11.9998 19.5 11.9998C18.6716 11.9998 18 11.3281 18 10.4998ZM29 15.9998H10V7.4092C10.7927 7.46877 11.583 7.26662 12.25 6.83425L13.103 7.68727C12.7278 8.19704 12.1331 8.49855 11.5 8.49977H11V12.4998H11.5C12.6045 12.4998 13.5 13.3953 13.5 14.4998V14.9998H25.5V14.4998C25.5 13.3953 26.3955 12.4998 27.5 12.4998H28V8.49977H27.5C26.3955 8.49977 25.5 7.60427 25.5 6.49977V5.99977H17.082L16.082 4.99977H29V15.9998Z" fill="#343434"/>
</g>
<defs>
<clipPath id="clip0">
<rect width="30" height="30" fill="white"/>
</clipPath>
</defs>
</svg>
