<svg width="23" height="23" viewBox="0 0 23 23" fill="none" xmlns="http://www.w3.org/2000/svg">
<g clip-path="url(#clip0_173:833)">
<path d="M18.0412 16.8088L22.7358 12.1369C22.736 12.1367 22.7362 12.1363 22.7366 12.1361C23.0884 11.7849 23.0873 11.2142 22.7365 10.8642C22.7362 10.8639 22.736 10.8636 22.7357 10.8633L18.0411 6.19143C17.6895 5.84145 17.1206 5.84275 16.7705 6.19449C16.4205 6.54618 16.4218 7.11502 16.7735 7.46506L19.9254 10.6017L0.898424 10.6017C0.402218 10.6017 -1.35732e-05 11.0039 -1.35949e-05 11.5001C-1.36166e-05 11.9963 0.402218 12.3986 0.898424 12.3986L19.9254 12.3986L16.7736 15.5352C16.4219 15.8852 16.4206 16.4541 16.7706 16.8057C17.1207 17.1575 17.6896 17.1587 18.0412 16.8088Z" fill="#76A135"/>
</g>
<defs>
<clipPath id="clip0_173:833">
<rect width="23" height="23" fill="white" transform="translate(23) rotate(90)"/>
</clipPath>
</defs>
</svg>
