<svg width="57" height="12" viewBox="0 0 57 12" fill="none" xmlns="http://www.w3.org/2000/svg">
<path d="M6 0L7.76336 3.57295L11.7063 4.1459L8.85317 6.92705L9.52671 10.8541L6 9L2.47329 10.8541L3.14683 6.92705L0.293661 4.1459L4.23664 3.57295L6 0Z" fill="#E3DC2C"/>
<path d="M21 0L22.7634 3.57295L26.7063 4.1459L23.8532 6.92705L24.5267 10.8541L21 9L17.4733 10.8541L18.1468 6.92705L15.2937 4.1459L19.2366 3.57295L21 0Z" fill="#E3DC2C"/>
<path d="M36 0L37.7634 3.57295L41.7063 4.1459L38.8532 6.92705L39.5267 10.8541L36 9L32.4733 10.8541L33.1468 6.92705L30.2937 4.1459L34.2366 3.57295L36 0Z" fill="#E3DC2C"/>
<path d="M51 0L52.7634 3.57295L56.7063 4.1459L53.8532 6.92705L54.5267 10.8541L51 9L47.4733 10.8541L48.1468 6.92705L45.2937 4.1459L49.2366 3.57295L51 0Z" fill="#E3DC2C"/>
</svg>
